<svg width="351" height="160" viewBox="0 0 351 160" fill="none" xmlns="http://www.w3.org/2000/svg">
<path d="M245.912 49H244.344V37.432H245.912V42.408H251.64V37.432H253.208V49H251.64V43.864H245.912V49ZM259.011 49.192C256.707 49.192 255.123 47.528 255.123 45.096C255.123 42.648 256.675 40.952 258.947 40.952C261.171 40.952 262.627 42.488 262.627 44.808V45.368L256.579 45.384C256.691 47.032 257.555 47.944 259.043 47.944C260.211 47.944 260.979 47.464 261.235 46.568H262.643C262.259 48.248 260.947 49.192 259.011 49.192ZM258.947 42.216C257.635 42.216 256.803 43 256.611 44.376H261.123C261.123 43.08 260.275 42.216 258.947 42.216ZM265.843 49H264.339V37.224H265.843V49ZM269.593 49H268.089V37.224H269.593V49ZM271.295 45.08C271.295 42.664 273.023 40.968 275.375 40.968C277.711 40.968 279.439 42.664 279.439 45.08C279.439 47.496 277.711 49.192 275.375 49.192C273.023 49.192 271.295 47.496 271.295 45.08ZM272.815 45.08C272.815 46.712 273.855 47.848 275.375 47.848C276.879 47.848 277.935 46.712 277.935 45.08C277.935 43.448 276.879 42.312 275.375 42.312C273.855 42.312 272.815 43.448 272.815 45.08ZM282.875 48.376C282.875 49.528 282.011 50.488 280.875 50.632V49.96C281.531 49.848 281.995 49.416 281.995 48.92C281.883 48.984 281.755 49.016 281.563 49.016C281.035 49.016 280.587 48.632 280.587 48.04C280.587 47.4 281.019 46.936 281.659 46.936C282.331 46.936 282.875 47.496 282.875 48.376ZM288.648 45.784V45.208H290.168V45.784C290.168 46.92 290.792 47.736 292.072 47.736C293.384 47.736 293.96 46.936 293.96 45.736V37.432H295.528V45.8C295.528 47.88 294.136 49.192 292.072 49.192C289.864 49.192 288.648 47.784 288.648 45.784ZM297.373 45.08C297.373 42.664 299.101 40.968 301.453 40.968C303.789 40.968 305.517 42.664 305.517 45.08C305.517 47.496 303.789 49.192 301.453 49.192C299.101 49.192 297.373 47.496 297.373 45.08ZM298.893 45.08C298.893 46.712 299.933 47.848 301.453 47.848C302.957 47.848 304.013 46.712 304.013 45.08C304.013 43.448 302.957 42.312 301.453 42.312C299.933 42.312 298.893 43.448 298.893 45.08ZM308.686 48.984H307.182V37.224H308.686V42.376C309.182 41.528 310.126 40.952 311.342 40.952C313.342 40.952 314.302 42.216 314.302 44.216V49H312.798V44.552C312.798 42.968 312.046 42.328 310.926 42.328C309.47 42.328 308.686 43.384 308.686 44.728V48.984ZM317.889 49H316.385V41.176H317.745L317.905 42.376C318.401 41.48 319.393 40.952 320.497 40.952C322.561 40.952 323.505 42.216 323.505 44.216V49H322.001V44.552C322.001 42.968 321.265 42.328 320.113 42.328C318.705 42.328 317.889 43.336 317.889 44.856V49Z" fill="#3DDEED" fill-opacity="0.8"/>
<path d="M216.408 8.30322H348.712V49.7101L322.172 78.0194H216.408V8.30322Z" stroke="#3DDEED" stroke-opacity="0.8"/>
<path d="M218.521 10.9042H346.273V48.4089L320.709 75.5808H218.521V10.9042Z" stroke="#3DDEED" stroke-opacity="0.8"/>
<path d="M292.476 5.52722V7.96571H349.049V16.2566L351 13.9806V5.52722H292.476Z" fill="#3DDEED" fill-opacity="0.8"/>
<path d="M231.514 5.05185H231.75L231.9 4.86921L235.489 0.5H241.581V6.32777H217.099L218.102 5.05185H231.514Z" stroke="#3DDEED" stroke-opacity="0.8"/>
<path d="M213.957 65.0263L216.07 62.913V78.3567H228.588L226.637 80.3075H213.957V65.0263Z" fill="#3DDEED" fill-opacity="0.8"/>
<path d="M208.267 68.4403V36.2522L214.77 32.0114V32.0255V62.1002L212.331 64.3761V71.529L208.267 68.4403Z" fill="#3DDEED" fill-opacity="0.8"/>
<path d="M208 64V106.239H236.701L237 138" stroke="#3DDEED" stroke-opacity="0.8"/>
<path d="M171.471 77.5L177.125 88L171.471 98.5L160.222 98.5L154.568 88L160.222 77.5L171.471 77.5Z" stroke="#3DDEED" stroke-opacity="0.8"/>
<path d="M174.308 88L170.077 95.1176L161.616 95.1176L157.385 88L161.616 80.8823L170.077 80.8823L174.308 88Z" fill="#3DDEED" fill-opacity="0.8"/>
<path d="M242.471 138.5L248.125 149L242.471 159.5L231.222 159.5L225.568 149L231.222 138.5L242.471 138.5Z" stroke="#3DDEED" stroke-opacity="0.8"/>
<path d="M245.308 149L241.077 156.118L232.616 156.118L228.385 149L232.616 141.882L241.077 141.882L245.308 149Z" fill="#3DDEED" fill-opacity="0.8"/>
<path d="M208.43 81.283H197.05L190.71 88.4359H177.054" stroke="#3DDEED" stroke-opacity="0.8"/>
<path d="M322.388 90.8743V79.6572H259.638L263.54 84.6968H306.457L310.358 90.8743H322.388Z" fill="#3DDEED" fill-opacity="0.8" stroke="#3DDEED" stroke-opacity="0.8"/>
<path d="M135.264 150.888V143.432H136.832V150.792C136.832 152.648 137.856 153.672 139.696 153.672C141.52 153.672 142.528 152.632 142.528 150.792V143.432H144.112V150.888C144.112 153.544 142.416 155.192 139.696 155.192C136.96 155.192 135.264 153.56 135.264 150.888ZM147.999 155H146.495V143.224H147.999V155ZM152.421 155H150.917V148.44H149.381V147.176H150.917V144.728H152.421V147.176H153.957V148.44H152.421V155ZM159.787 147.112V148.488H159.115C157.691 148.488 156.811 149.352 156.811 150.856V155H155.307V147.192H156.715L156.811 148.376C157.131 147.56 157.915 147.016 158.987 147.016C159.259 147.016 159.483 147.048 159.787 147.112ZM163.173 155.192C161.493 155.192 160.501 154.248 160.501 152.824C160.501 151.384 161.573 150.488 163.413 150.344L165.877 150.152V149.928C165.877 148.616 165.093 148.152 164.037 148.152C162.773 148.152 162.053 148.712 162.053 149.656H160.741C160.741 148.024 162.085 146.952 164.101 146.952C166.037 146.952 167.349 147.976 167.349 150.088V155H166.069L165.909 153.736C165.509 154.632 164.437 155.192 163.173 155.192ZM163.605 154.024C165.029 154.024 165.893 153.096 165.893 151.624V151.208L163.893 151.368C162.565 151.496 162.021 152.008 162.021 152.776C162.021 153.608 162.629 154.024 163.605 154.024ZM178.287 147.112V148.488H177.615C176.191 148.488 175.311 149.352 175.311 150.856V155H173.807V147.192H175.215L175.311 148.376C175.631 147.56 176.415 147.016 177.487 147.016C177.759 147.016 177.983 147.048 178.287 147.112ZM182.792 155.192C180.488 155.192 178.904 153.528 178.904 151.096C178.904 148.648 180.456 146.952 182.728 146.952C184.952 146.952 186.408 148.488 186.408 150.808V151.368L180.36 151.384C180.472 153.032 181.336 153.944 182.824 153.944C183.992 153.944 184.76 153.464 185.016 152.568H186.424C186.04 154.248 184.728 155.192 182.792 155.192ZM182.728 148.216C181.416 148.216 180.584 149 180.392 150.376H184.904C184.904 149.08 184.056 148.216 182.728 148.216ZM190.298 155.192C188.618 155.192 187.626 154.248 187.626 152.824C187.626 151.384 188.698 150.488 190.538 150.344L193.002 150.152V149.928C193.002 148.616 192.218 148.152 191.162 148.152C189.898 148.152 189.178 148.712 189.178 149.656H187.866C187.866 148.024 189.21 146.952 191.226 146.952C193.162 146.952 194.474 147.976 194.474 150.088V155H193.194L193.034 153.736C192.634 154.632 191.562 155.192 190.298 155.192ZM190.73 154.024C192.154 154.024 193.018 153.096 193.018 151.624V151.208L191.018 151.368C189.69 151.496 189.146 152.008 189.146 152.776C189.146 153.608 189.754 154.024 190.73 154.024ZM198.093 155H196.589V143.224H198.093V155ZM201.043 145.32C200.499 145.32 200.051 144.872 200.051 144.328C200.051 143.768 200.499 143.336 201.043 143.336C201.587 143.336 202.035 143.768 202.035 144.328C202.035 144.872 201.587 145.32 201.043 145.32ZM200.307 155V147.176H201.811V155H200.307ZM206.202 155H204.698V148.44H203.162V147.176H204.698V144.728H206.202V147.176H207.738V148.44H206.202V155ZM208.336 158.504V157.272H209.344C210.064 157.272 210.64 157.16 211.008 156.168L211.28 155.416L208.128 147.176H209.712L211.984 153.48L214.304 147.176H215.856L212.16 156.76C211.632 158.104 210.848 158.664 209.648 158.664C209.152 158.664 208.736 158.6 208.336 158.504Z" fill="white"/>
<path d="M5.168 91H1.344V79.432H5.104C8.56 79.432 10.896 81.768 10.896 85.224C10.896 88.664 8.592 91 5.168 91ZM4.992 80.872H2.912V89.544H5.056C7.632 89.544 9.264 87.88 9.264 85.224C9.264 82.536 7.632 80.872 4.992 80.872ZM13.3709 81.32C12.8269 81.32 12.3789 80.872 12.3789 80.328C12.3789 79.768 12.8269 79.336 13.3709 79.336C13.9149 79.336 14.3629 79.768 14.3629 80.328C14.3629 80.872 13.9149 81.32 13.3709 81.32ZM12.6349 91V83.176H14.1389V91H12.6349ZM15.6824 88.728H17.1224C17.1224 89.528 17.7304 90.008 18.7224 90.008C19.7784 90.008 20.3864 89.576 20.3864 88.856C20.3864 88.328 20.1304 88.008 19.3144 87.8L17.9384 87.48C16.5464 87.144 15.8904 86.456 15.8904 85.304C15.8904 83.864 17.1064 82.952 18.8344 82.952C20.5464 82.952 21.6664 83.912 21.6984 85.4H20.2584C20.2264 84.616 19.6984 84.12 18.7864 84.12C17.8424 84.12 17.3144 84.536 17.3144 85.256C17.3144 85.784 17.6984 86.136 18.4664 86.328L19.8424 86.664C21.1704 86.984 21.8264 87.592 21.8264 88.76C21.8264 90.248 20.5464 91.192 18.6904 91.192C16.8504 91.192 15.6824 90.216 15.6824 88.728ZM22.9823 87.096C22.9823 84.648 24.5343 82.952 26.8223 82.952C28.7903 82.952 30.1663 84.072 30.4383 85.816H28.9343C28.6783 84.824 27.8783 84.296 26.8703 84.296C25.4463 84.296 24.4703 85.384 24.4703 87.08C24.4703 88.76 25.3823 89.848 26.8063 89.848C27.8783 89.848 28.6783 89.288 28.9503 88.36H30.4543C30.1503 90.056 28.6943 91.192 26.8063 91.192C24.5023 91.192 22.9823 89.56 22.9823 87.096ZM31.5291 87.08C31.5291 84.664 33.2571 82.968 35.6091 82.968C37.9451 82.968 39.6731 84.664 39.6731 87.08C39.6731 89.496 37.9451 91.192 35.6091 91.192C33.2571 91.192 31.5291 89.496 31.5291 87.08ZM33.0491 87.08C33.0491 88.712 34.0891 89.848 35.6091 89.848C37.1131 89.848 38.1691 88.712 38.1691 87.08C38.1691 85.448 37.1131 84.312 35.6091 84.312C34.0891 84.312 33.0491 85.448 33.0491 87.08ZM43.1706 91L40.0186 83.176H41.6186L43.3306 87.544C43.6026 88.28 43.8266 88.936 43.9546 89.416C44.0826 88.904 44.3386 88.232 44.6106 87.544L46.3546 83.176H47.9226L44.6586 91H43.1706ZM52.1359 91.192C49.8319 91.192 48.2479 89.528 48.2479 87.096C48.2479 84.648 49.7999 82.952 52.0719 82.952C54.2959 82.952 55.7519 84.488 55.7519 86.808V87.368L49.7039 87.384C49.8159 89.032 50.6799 89.944 52.1679 89.944C53.3359 89.944 54.1039 89.464 54.3599 88.568H55.7679C55.3839 90.248 54.0719 91.192 52.1359 91.192ZM52.0719 84.216C50.7599 84.216 49.9279 85 49.7359 86.376H54.2479C54.2479 85.08 53.3999 84.216 52.0719 84.216ZM61.9118 83.112V84.488H61.2398C59.8158 84.488 58.9358 85.352 58.9358 86.856V91H57.4318V83.192H58.8398L58.9358 84.376C59.2558 83.56 60.0398 83.016 61.1118 83.016C61.3838 83.016 61.6078 83.048 61.9118 83.112ZM69.2014 91H67.6974V83.176H69.0574L69.2174 84.376C69.7134 83.48 70.7054 82.952 71.8094 82.952C73.8734 82.952 74.8174 84.216 74.8174 86.216V91H73.3134V86.552C73.3134 84.968 72.5774 84.328 71.4254 84.328C70.0174 84.328 69.2014 85.336 69.2014 86.856V91ZM80.2765 91.192C77.9725 91.192 76.3885 89.528 76.3885 87.096C76.3885 84.648 77.9405 82.952 80.2125 82.952C82.4365 82.952 83.8925 84.488 83.8925 86.808V87.368L77.8445 87.384C77.9565 89.032 78.8205 89.944 80.3085 89.944C81.4765 89.944 82.2445 89.464 82.5005 88.568H83.9085C83.5245 90.248 82.2125 91.192 80.2765 91.192ZM80.2125 84.216C78.9005 84.216 78.0685 85 77.8765 86.376H82.3885C82.3885 85.08 81.5405 84.216 80.2125 84.216ZM86.9868 91L84.4268 83.176H85.9788L87.2748 87.24C87.4508 87.816 87.6108 88.408 87.7548 89.096C87.8828 88.408 88.0908 87.752 88.2668 87.24L89.5788 83.176H91.1148L92.4108 87.24C92.5388 87.624 92.7948 88.536 92.9228 89.096C93.0508 88.472 93.1948 87.928 93.4188 87.24L94.7308 83.176H96.2988L93.6267 91H92.2028L90.8428 86.808C90.5868 86.024 90.4268 85.416 90.3468 84.984C90.2668 85.368 90.1228 85.88 89.8348 86.824L88.4748 91H86.9868ZM103.643 91L101.083 83.176H102.635L103.931 87.24C104.107 87.816 104.267 88.408 104.411 89.096C104.539 88.408 104.747 87.752 104.923 87.24L106.235 83.176H107.771L109.067 87.24C109.195 87.624 109.451 88.536 109.579 89.096C109.707 88.472 109.851 87.928 110.075 87.24L111.387 83.176H112.955L110.283 91H108.859L107.499 86.808C107.243 86.024 107.083 85.416 107.003 84.984C106.923 85.368 106.779 85.88 106.491 86.824L105.131 91H103.643ZM113.373 87.08C113.373 84.664 115.101 82.968 117.453 82.968C119.789 82.968 121.517 84.664 121.517 87.08C121.517 89.496 119.789 91.192 117.453 91.192C115.101 91.192 113.373 89.496 113.373 87.08ZM114.893 87.08C114.893 88.712 115.933 89.848 117.453 89.848C118.957 89.848 120.013 88.712 120.013 87.08C120.013 85.448 118.957 84.312 117.453 84.312C115.933 84.312 114.893 85.448 114.893 87.08ZM127.662 83.112V84.488H126.99C125.566 84.488 124.686 85.352 124.686 86.856V91H123.182V83.192H124.59L124.686 84.376C125.006 83.56 125.79 83.016 126.862 83.016C127.134 83.016 127.358 83.048 127.662 83.112ZM130.608 91H129.104V79.224H130.608V91ZM135.958 91.192C133.686 91.192 132.31 89.496 132.31 87.112C132.31 84.712 133.702 82.952 136.022 82.952C137.222 82.952 138.23 83.48 138.758 84.44V79.224H140.246V91H138.902L138.774 89.576C138.262 90.648 137.206 91.192 135.958 91.192ZM136.262 89.832C137.798 89.832 138.742 88.696 138.742 87.064C138.742 85.464 137.798 84.312 136.262 84.312C134.726 84.312 133.83 85.464 133.83 87.064C133.83 88.68 134.726 89.832 136.262 89.832Z" fill="white"/>
</svg>
