<svg width="138" height="86" viewBox="0 0 138 86" fill="none" xmlns="http://www.w3.org/2000/svg">
<path d="M22.28 41.968H25.64V38.608H26.92V41.968H30.28V43.248H26.92V46.624H25.64V43.248H22.28V41.968ZM34.5545 37.84H32.1225V36.432H36.0585V48H34.5545V37.84ZM38.1746 42.224C38.1746 38.64 40.0306 36.208 42.9426 36.208C45.8386 36.208 47.6946 38.64 47.6946 42.224C47.6946 45.824 45.9186 48.208 42.9426 48.208C39.9506 48.208 38.1746 45.824 38.1746 42.224ZM39.7266 42.224C39.7266 45.072 40.9106 46.8 42.9426 46.8C44.9746 46.8 46.1426 45.072 46.1426 42.224C46.1426 39.344 44.9746 37.616 42.9426 37.616C40.9106 37.616 39.7266 39.344 39.7266 42.224ZM49.2684 42.224C49.2684 38.64 51.1244 36.208 54.0364 36.208C56.9324 36.208 58.7884 38.64 58.7884 42.224C58.7884 45.824 57.0124 48.208 54.0364 48.208C51.0444 48.208 49.2684 45.824 49.2684 42.224ZM50.8204 42.224C50.8204 45.072 52.0044 46.8 54.0364 46.8C56.0684 46.8 57.2364 45.072 57.2364 42.224C57.2364 39.344 56.0684 37.616 54.0364 37.616C52.0044 37.616 50.8204 39.344 50.8204 42.224ZM70.2571 37.712C67.7611 37.712 66.2571 39.552 66.2571 42.288C66.2571 45.088 67.8891 46.704 70.2731 46.704C72.2411 46.704 73.8251 45.696 73.8251 43.36V43.024H69.9531V41.632H75.2971V48.016H73.9851L73.8731 46.448C73.2491 47.456 71.8411 48.192 70.1451 48.192C66.8651 48.192 64.6091 45.824 64.6091 42.256C64.6091 38.736 66.8811 36.24 70.2891 36.24C72.8171 36.24 74.7851 37.696 75.1691 39.92H73.5051C73.0731 38.448 71.7931 37.712 70.2571 37.712ZM79.5635 48.192C77.8835 48.192 76.8915 47.248 76.8915 45.824C76.8915 44.384 77.9635 43.488 79.8035 43.344L82.2675 43.152V42.928C82.2675 41.616 81.4835 41.152 80.4275 41.152C79.1635 41.152 78.4435 41.712 78.4435 42.656H77.1315C77.1315 41.024 78.4755 39.952 80.4915 39.952C82.4275 39.952 83.7395 40.976 83.7395 43.088V48H82.4595L82.2995 46.736C81.8995 47.632 80.8275 48.192 79.5635 48.192ZM79.9955 47.024C81.4195 47.024 82.2835 46.096 82.2835 44.624V44.208L80.2835 44.368C78.9555 44.496 78.4115 45.008 78.4115 45.776C78.4115 46.608 79.0195 47.024 79.9955 47.024ZM87.3264 48H85.8224V40.176H87.1664L87.3104 41.2C87.7104 40.464 88.5424 39.952 89.6464 39.952C90.8624 39.952 91.7264 40.56 92.1264 41.536C92.4944 40.56 93.4384 39.952 94.6544 39.952C96.4464 39.952 97.5344 41.072 97.5344 42.88V48H96.0624V43.248C96.0624 42.016 95.3744 41.312 94.3184 41.312C93.1824 41.312 92.4304 42.112 92.4304 43.36V48H90.9424V43.232C90.9424 42 90.2704 41.328 89.2144 41.328C88.0784 41.328 87.3264 42.112 87.3264 43.36V48ZM102.995 48.192C100.691 48.192 99.1073 46.528 99.1073 44.096C99.1073 41.648 100.659 39.952 102.931 39.952C105.155 39.952 106.611 41.488 106.611 43.808V44.368L100.563 44.384C100.675 46.032 101.539 46.944 103.027 46.944C104.195 46.944 104.963 46.464 105.219 45.568H106.627C106.243 47.248 104.931 48.192 102.995 48.192ZM102.931 41.216C101.619 41.216 100.787 42 100.595 43.376H105.107C105.107 42.08 104.259 41.216 102.931 41.216ZM107.651 45.728H109.091C109.091 46.528 109.699 47.008 110.691 47.008C111.747 47.008 112.355 46.576 112.355 45.856C112.355 45.328 112.099 45.008 111.283 44.8L109.907 44.48C108.515 44.144 107.859 43.456 107.859 42.304C107.859 40.864 109.075 39.952 110.803 39.952C112.515 39.952 113.635 40.912 113.667 42.4H112.227C112.195 41.616 111.667 41.12 110.755 41.12C109.811 41.12 109.283 41.536 109.283 42.256C109.283 42.784 109.667 43.136 110.435 43.328L111.811 43.664C113.139 43.984 113.795 44.592 113.795 45.76C113.795 47.248 112.515 48.192 110.659 48.192C108.819 48.192 107.651 47.216 107.651 45.728Z" fill="#3DDEED" fill-opacity="0.8"/>
<path d="M2.45068 77.3936L134.755 77.3936V35.9867L108.215 7.67738H2.45068L2.45068 77.3936Z" stroke="#3DDEED" stroke-opacity="0.8"/>
<path d="M4.56396 74.7925H132.316V37.2877L106.752 10.1159H4.56396L4.56396 74.7925Z" stroke="#3DDEED" stroke-opacity="0.8"/>
<path d="M78.5193 80.1696V77.7311H135.092V69.4402L137.043 71.7161V80.1696H78.5193Z" fill="#3DDEED" fill-opacity="0.8"/>
<path d="M17.557 80.6449H17.7934L17.9434 80.8276L21.5324 85.1968H27.6238V79.369H3.14201L4.14452 80.6449H17.557Z" stroke="#3DDEED" stroke-opacity="0.8"/>
<path d="M0 20.6705L2.11336 22.7838L2.11336 7.34005H14.6309L12.6801 5.38926H0L0 20.6705Z" fill="#3DDEED" fill-opacity="0.8"/>
<path d="M108.431 1.00001V6.03955L45.6809 6.03955L49.5825 1.00001L92.4999 1.00001L108.431 1.00001Z" fill="#3DDEED" fill-opacity="0.8" stroke="#3DDEED" stroke-opacity="0.8"/>
</svg>
