<svg width="324" height="173" viewBox="0 0 324 173" fill="none" xmlns="http://www.w3.org/2000/svg">
<path d="M321.855 12.7552C324.371 18.2557 322.726 25.6422 317.011 34.5216C311.327 43.3531 301.778 53.3974 289.063 64.0217C263.645 85.261 225.755 108.67 181.417 129.189C137.079 149.708 94.7533 163.422 62.1801 169.02C45.886 171.821 32.0903 172.581 21.7252 171.177C11.3042 169.767 4.66066 166.22 2.14531 160.722C-0.371237 155.222 1.27399 147.835 6.98906 138.956C12.6733 130.124 22.2222 120.08 34.9371 109.456C60.3553 88.2164 98.2454 64.807 142.583 44.2881C186.921 23.7692 229.247 10.0557 261.82 4.45705C278.114 1.65645 291.91 0.896833 302.275 2.29992C312.696 3.71056 319.339 7.25735 321.855 12.7552Z" stroke="url(#paint0_linear_5_516)" stroke-width="2"/>
<defs>
<linearGradient id="paint0_linear_5_516" x1="183.158" y1="29.202" x2="221.242" y2="99.2772" gradientUnits="userSpaceOnUse">
<stop stop-color="#BD00FF" stop-opacity="0"/>
<stop offset="0.305326" stop-color="#BD00FF"/>
<stop offset="1" stop-color="#BD00FF" stop-opacity="0"/>
</linearGradient>
</defs>
</svg>
